<mxfile host="app.diagrams.net" modified="2024-02-04T10:07:50.939Z" agent="Mozilla/5.0 (Macintosh; Intel Mac OS X 10_15_7) AppleWebKit/605.1.15 (KHTML, like Gecko) Version/17.2.1 Safari/605.1.15" etag="TaiCzgfS9E_NNShlRx7q" version="23.1.0" type="github">
  <diagram name="第 1 页" id="xcInZ_utp_nFq2Xe3n_l">
    <mxGraphModel dx="570" dy="868" grid="1" gridSize="10" guides="1" tooltips="1" connect="1" arrows="1" fold="1" page="1" pageScale="1" pageWidth="827" pageHeight="1169" math="0" shadow="0">
      <root>
        <mxCell id="0" />
        <mxCell id="1" parent="0" />
        <mxCell id="cLljmIIixbYoptoWQaJX-3" value="" style="edgeStyle=orthogonalEdgeStyle;rounded=0;orthogonalLoop=1;jettySize=auto;html=1;" edge="1" parent="1" source="cLljmIIixbYoptoWQaJX-1" target="cLljmIIixbYoptoWQaJX-2">
          <mxGeometry relative="1" as="geometry" />
        </mxCell>
        <mxCell id="cLljmIIixbYoptoWQaJX-1" value="开始" style="rounded=1;whiteSpace=wrap;html=1;fontSize=17;" vertex="1" parent="1">
          <mxGeometry x="990" y="173" width="120" height="30" as="geometry" />
        </mxCell>
        <mxCell id="cLljmIIixbYoptoWQaJX-5" value="" style="edgeStyle=orthogonalEdgeStyle;rounded=0;orthogonalLoop=1;jettySize=auto;html=1;" edge="1" parent="1" source="cLljmIIixbYoptoWQaJX-2" target="cLljmIIixbYoptoWQaJX-4">
          <mxGeometry relative="1" as="geometry" />
        </mxCell>
        <mxCell id="cLljmIIixbYoptoWQaJX-2" value="输入数据" style="shape=parallelogram;perimeter=parallelogramPerimeter;whiteSpace=wrap;html=1;fixedSize=1;fontSize=17;rounded=1;" vertex="1" parent="1">
          <mxGeometry x="990" y="223" width="120" height="30" as="geometry" />
        </mxCell>
        <mxCell id="cLljmIIixbYoptoWQaJX-22" style="edgeStyle=orthogonalEdgeStyle;rounded=0;orthogonalLoop=1;jettySize=auto;html=1;exitX=0.5;exitY=1;exitDx=0;exitDy=0;entryX=0.5;entryY=0;entryDx=0;entryDy=0;" edge="1" parent="1" source="cLljmIIixbYoptoWQaJX-4" target="cLljmIIixbYoptoWQaJX-6">
          <mxGeometry relative="1" as="geometry" />
        </mxCell>
        <mxCell id="cLljmIIixbYoptoWQaJX-4" value="初始化参数" style="whiteSpace=wrap;html=1;fontSize=17;rounded=1;" vertex="1" parent="1">
          <mxGeometry x="990" y="272" width="120" height="30" as="geometry" />
        </mxCell>
        <mxCell id="cLljmIIixbYoptoWQaJX-9" value="" style="edgeStyle=orthogonalEdgeStyle;rounded=0;orthogonalLoop=1;jettySize=auto;html=1;" edge="1" parent="1" source="cLljmIIixbYoptoWQaJX-6" target="cLljmIIixbYoptoWQaJX-8">
          <mxGeometry relative="1" as="geometry" />
        </mxCell>
        <mxCell id="cLljmIIixbYoptoWQaJX-6" value="利用式（&lt;span style=&quot;font-size: 12pt; text-align: start; font-family: &amp;quot;Times New Roman&amp;quot;, serif;&quot; lang=&quot;EN-US&quot;&gt;2-5&lt;/span&gt;&lt;span style=&quot;font-size: 12pt; text-align: start; font-family: 宋体;&quot;&gt;）&lt;/span&gt;计算残差" style="whiteSpace=wrap;html=1;fontSize=17;rounded=1;" vertex="1" parent="1">
          <mxGeometry x="920" y="320" width="260" height="30" as="geometry" />
        </mxCell>
        <mxCell id="cLljmIIixbYoptoWQaJX-11" value="" style="edgeStyle=orthogonalEdgeStyle;rounded=0;orthogonalLoop=1;jettySize=auto;html=1;" edge="1" parent="1" source="cLljmIIixbYoptoWQaJX-8" target="cLljmIIixbYoptoWQaJX-10">
          <mxGeometry relative="1" as="geometry" />
        </mxCell>
        <mxCell id="cLljmIIixbYoptoWQaJX-8" value="利用式（&lt;span style=&quot;font-size: 12pt; text-align: start; font-family: &amp;quot;Times New Roman&amp;quot;, serif;&quot; lang=&quot;EN-US&quot;&gt;2-8&lt;/span&gt;&lt;span style=&quot;font-size: 12pt; text-align: start; font-family: 宋体;&quot;&gt;）&lt;/span&gt;&lt;span style=&quot;font-family: -webkit-standard; font-size: medium; text-align: start;&quot;&gt;&lt;/span&gt;&lt;br&gt;基于监督机制选取合适的 w、b" style="whiteSpace=wrap;html=1;fontSize=17;rounded=1;" vertex="1" parent="1">
          <mxGeometry x="920" y="370" width="260" height="60" as="geometry" />
        </mxCell>
        <mxCell id="cLljmIIixbYoptoWQaJX-13" value="" style="edgeStyle=orthogonalEdgeStyle;rounded=0;orthogonalLoop=1;jettySize=auto;html=1;" edge="1" parent="1" source="cLljmIIixbYoptoWQaJX-10" target="cLljmIIixbYoptoWQaJX-12">
          <mxGeometry relative="1" as="geometry" />
        </mxCell>
        <mxCell id="cLljmIIixbYoptoWQaJX-10" value="增加隐含层的节点" style="rounded=1;whiteSpace=wrap;html=1;fontSize=17;" vertex="1" parent="1">
          <mxGeometry x="955" y="450" width="190" height="30" as="geometry" />
        </mxCell>
        <mxCell id="cLljmIIixbYoptoWQaJX-19" value="" style="edgeStyle=orthogonalEdgeStyle;rounded=0;orthogonalLoop=1;jettySize=auto;html=1;" edge="1" parent="1" source="cLljmIIixbYoptoWQaJX-12" target="cLljmIIixbYoptoWQaJX-18">
          <mxGeometry relative="1" as="geometry" />
        </mxCell>
        <mxCell id="cLljmIIixbYoptoWQaJX-12" value="满足式（&lt;span style=&quot;font-size: 12pt; text-align: start; font-family: &amp;quot;Times New Roman&amp;quot;, serif;&quot; lang=&quot;EN-US&quot;&gt;2-9&lt;/span&gt;&lt;span style=&quot;font-size: 12pt; text-align: start; font-family: 宋体;&quot;&gt;）的终止条件？&lt;/span&gt;&lt;span style=&quot;font-family: -webkit-standard; font-size: medium; text-align: start;&quot;&gt;&lt;/span&gt;" style="rhombus;whiteSpace=wrap;html=1;fontSize=17;rounded=1;" vertex="1" parent="1">
          <mxGeometry x="930" y="500" width="240" height="50" as="geometry" />
        </mxCell>
        <mxCell id="cLljmIIixbYoptoWQaJX-16" value="结束" style="rounded=1;whiteSpace=wrap;html=1;fontSize=17;" vertex="1" parent="1">
          <mxGeometry x="990" y="620" width="120" height="30" as="geometry" />
        </mxCell>
        <mxCell id="cLljmIIixbYoptoWQaJX-20" style="edgeStyle=orthogonalEdgeStyle;rounded=0;orthogonalLoop=1;jettySize=auto;html=1;exitX=0.5;exitY=1;exitDx=0;exitDy=0;" edge="1" parent="1" source="cLljmIIixbYoptoWQaJX-18" target="cLljmIIixbYoptoWQaJX-16">
          <mxGeometry relative="1" as="geometry" />
        </mxCell>
        <mxCell id="cLljmIIixbYoptoWQaJX-18" value="输出结果" style="shape=parallelogram;perimeter=parallelogramPerimeter;whiteSpace=wrap;html=1;fixedSize=1;fontSize=17;rounded=1;" vertex="1" parent="1">
          <mxGeometry x="990" y="570" width="120" height="30" as="geometry" />
        </mxCell>
      </root>
    </mxGraphModel>
  </diagram>
</mxfile>
